<svg xmlns="http://www.w3.org/2000/svg" viewBox="0 0 240.36186 147.39502"><title>black</title><path d="M931.33161,510.38581a4.28,4.28,0,0,0-7.90637-1.59174l-24.49011,40.81745a4.28,4.28,0,0,0,3.6701,6.482h30.37055a4.28,4.28,0,0,0,4.23626-4.89032Z" transform="translate(-840.38209 -466.4867)" style="fill:none"/><path d="M1064.61359,478.84608c-9.45556-8.20118-22.02246-12.35938-37.352-12.35938a72.01483,72.01483,0,0,0-38.08593,10.687c-11.60352,7.09229-20.80469,17.47217-27.34864,30.85059q-1.75744,3.59318-3.2,7.33771l14.35968,88.45074c9.05444,6.68109,20.59808,10.069,34.45068,10.069,15.40528,0,29.03174-4.26318,40.501-12.67139,10.22022-7.49414,18.27832-18.11914,23.94971-31.58056a3.926,3.926,0,0,0-.19043-3.4668,3.869,3.869,0,0,0-2.81348-1.94629l-20.894-3.16162a3.90439,3.90439,0,0,0-4.24561,2.51221c-3.10254,8.11523-7.53564,14.45947-13.17627,18.85644a33.81668,33.81668,0,0,1-21.17773,7.501,26.74109,26.74109,0,0,1-20.83838-9.50244c-5.5376-6.29053-8.34521-15.31055-8.34521-26.81006a84.56352,84.56352,0,0,1,6.375-31.63477c4.23974-10.53369,9.98486-18.39355,17.07568-23.36035a39.53686,39.53686,0,0,1,23.01807-7.48974c7.477,0,13.55468,1.91894,18.06347,5.70312,3.84571,3.22949,6.66114,8.19971,8.36914,14.77246a3.88159,3.88159,0,0,0,4.14746,2.89209l19.96143-1.93359a3.85072,3.85072,0,0,0,2.73682-1.53809,3.97247,3.97247,0,0,0,.72168-3.1123C1078.41975,495.91248,1073.01594,486.13367,1064.61359,478.84608Z" transform="translate(-840.38209 -466.4867)" style="fill:none"/><path d="M966.099,598.69276c-9.88428-10.56934-14.896-26.09815-14.896-46.15479a102.86671,102.86671,0,0,1,7.19055-38.61414l-6.80743-41.93145a4.28007,4.28007,0,0,0-4.22473-3.59418H920.78486a4.28,4.28,0,0,0-3.72559,2.17328l-76.11651,134.604a4.28,4.28,0,0,0,3.72558,6.38678h20.39051a4.28,4.28,0,0,0,3.76092-2.237l14.75714-27.16656a4.28,4.28,0,0,1,3.76093-2.23706h50.51068a4.28006,4.28006,0,0,1,4.23187,3.64l3.68414,24.3606a4.28007,4.28007,0,0,0,4.23188,3.64h19.21747a4.28,4.28,0,0,0,4.22467-4.96588l-.28272-1.74139A46.99018,46.99018,0,0,1,966.099,598.69276Zm-33.12317-42.59925H902.60523a4.28,4.28,0,0,1-3.6701-6.482l24.49011-40.81745a4.28,4.28,0,0,1,7.90637,1.59174l5.88043,40.81738A4.28,4.28,0,0,1,932.97578,556.09351Z" transform="translate(-840.38209 -466.4867)"/><path d="M1064.61359,478.84608c-9.45556-8.20118-22.02246-12.35938-37.352-12.35938a72.01483,72.01483,0,0,0-38.08593,10.687c-11.60352,7.09229-20.80469,17.47217-27.34864,30.85059q-1.75744,3.59318-3.2,7.33771a102.49171,102.49171,0,0,0-6.674,37.176c0,19.86035,4.94385,35.21631,14.69385,45.64209a46.26013,46.26013,0,0,0,6.33984,5.63269c9.05444,6.68109,20.59808,10.069,34.45068,10.069,15.40528,0,29.03174-4.26318,40.501-12.67139,10.22022-7.49414,18.27832-18.11914,23.94971-31.58056a3.926,3.926,0,0,0-.19043-3.4668,3.869,3.869,0,0,0-2.81348-1.94629l-20.894-3.16162a3.90439,3.90439,0,0,0-4.24561,2.51221c-3.10254,8.11523-7.53564,14.45947-13.17627,18.85644a33.81668,33.81668,0,0,1-21.17773,7.501,26.74109,26.74109,0,0,1-20.83838-9.50244c-5.5376-6.29053-8.34521-15.31055-8.34521-26.81006a84.56352,84.56352,0,0,1,6.375-31.63477c4.23974-10.53369,9.98486-18.39355,17.07568-23.36035a39.53686,39.53686,0,0,1,23.01807-7.48974c7.477,0,13.55468,1.91894,18.06347,5.70312,3.84571,3.22949,6.66114,8.19971,8.36914,14.77246a3.88159,3.88159,0,0,0,4.14746,2.89209l19.96143-1.93359a3.85072,3.85072,0,0,0,2.73682-1.53809,3.97247,3.97247,0,0,0,.72168-3.1123C1078.41975,495.91248,1073.01594,486.13367,1064.61359,478.84608Z" transform="translate(-840.38209 -466.4867)"/></svg>